<?xml version="1.0" ?><!DOCTYPE svg  PUBLIC '-//W3C//DTD SVG 1.1//EN'  'http://www.w3.org/Graphics/SVG/1.1/DTD/svg11.dtd'><svg id="Layer_1" style="enable-background:new 0 0 512 512;" version="1.1" viewBox="0 0 512 512" xml:space="preserve" xmlns="http://www.w3.org/2000/svg" xmlns:xlink="http://www.w3.org/1999/xlink"><style type="text/css">
	.st0{fill:#FFFFFF;}
	.st1{fill:#4CB6AC;}
	.st2{fill:#263238;}
	.st3{fill:#F48FB1;}
</style><g><g id="XMLID_1351_"><path class="st0" d="M404.3,488.1H124.2c-6.6,0-12-5.4-12-12V145.1c0-6.6,5.4-12,12-12h280.1c6.6,0,12,5.4,12,12     v331.1C416.3,482.7,410.9,488.1,404.3,488.1z" id="XMLID_795_"/><path class="st1" d="M383.9,483H103.8c-6.6,0-12-5.4-12-12V140c0-6.6,5.4-12,12-12h280.1c6.6,0,12,5.4,12,12V471     C395.9,477.6,390.5,483,383.9,483z" id="XMLID_566_"/><g id="XMLID_193_"><ellipse class="st0" cx="262.9" cy="81.6" id="XMLID_660_" rx="51.2" ry="51.5"/><path class="st2" d="M262.9,143.2c-33.8,0-61.4-27.7-61.4-61.7s27.5-61.7,61.4-61.7s61.4,27.7,61.4,61.7      S296.8,143.2,262.9,143.2z M262.9,40.3c-22.6,0-41,18.5-41,41.3s18.4,41.3,41,41.3s41-18.5,41-41.3S285.5,40.3,262.9,40.3z" id="XMLID_661_"/></g><g id="XMLID_187_"><path class="st0" d="M135.4,485.1H72.6c-4,0-7.3-3.3-7.3-7.3V309.5c0-4,3.3-7.3,7.3-7.3h62.7      c4,0,7.3,3.3,7.3,7.3v168.2C142.7,481.8,139.4,485.1,135.4,485.1z" id="XMLID_76_"/><path class="st3" d="M83.6,480L83.6,480c-21.3,0-38.7-17.4-38.7-38.7V335.8c0-21.3,17.4-38.7,38.7-38.7h0      c21.3,0,38.7,17.4,38.7,38.7v105.5C122.3,462.6,104.9,480,83.6,480z" id="XMLID_668_"/><path class="st2" d="M105.5,495.3h-3c-26.1,0-47.4-21.2-47.4-47.4V339.4c0-26.1,21.2-47.4,47.4-47.4h3      c26.1,0,47.4,21.2,47.4,47.4v108.5C152.8,474,131.6,495.3,105.5,495.3z M102.5,312.4c-14.9,0-27,12.1-27,27v108.5      c0,14.9,12.1,27,27,27h3c14.9,0,27-12.1,27-27V339.4c0-14.9-12.1-27-27-27H102.5z" id="XMLID_669_"/></g><g id="XMLID_186_"><path class="st0" d="M453.3,485.1h-62.7c-4,0-7.3-3.3-7.3-7.3V309.5c0-4,3.3-7.3,7.3-7.3h62.7      c4,0,7.3,3.3,7.3,7.3v168.2C460.6,481.8,457.3,485.1,453.3,485.1z" id="XMLID_114_"/><path class="st3" d="M401.5,485.1L401.5,485.1c-21.3,0-38.7-17.4-38.7-38.7V340.9c0-21.3,17.4-38.7,38.7-38.7h0      c21.3,0,38.7,17.4,38.7,38.7v105.5C440.2,467.7,422.8,485.1,401.5,485.1z" id="XMLID_664_"/><path class="st2" d="M423.4,495.3h-3c-26.1,0-47.4-21.2-47.4-47.4V339.4c0-26.1,21.2-47.4,47.4-47.4h3      c26.1,0,47.4,21.2,47.4,47.4v108.5C470.7,474,449.5,495.3,423.4,495.3z M420.4,312.4c-14.9,0-27,12.1-27,27v108.5      c0,14.9,12.1,27,27,27h3c14.9,0,27-12.1,27-27V339.4c0-14.9-12.1-27-27-27H420.4z" id="XMLID_665_"/></g><path class="st0" d="M360,488.1H168.4c-30.9,0-56.2-25.3-56.2-56.2V138c0-30.9,25.3-56.2,56.2-56.2H360     c30.9,0,56.2,25.3,56.2,56.2v293.9C416.3,462.8,391,488.1,360,488.1z" id="XMLID_1207_"/><path class="st1" d="M334.2,488.1H153.5c-33.9,0-61.7-27.8-61.7-61.7v-283c0-33.9,27.8-61.7,61.7-61.7h180.7     c33.9,0,61.7,27.8,61.7,61.7v283C395.9,460.4,368.1,488.1,334.2,488.1z" id="XMLID_570_"/><path class="st2" d="M355.2,498.3H173.3c-39.3,0-71.2-32-71.2-71.2V142.9c0-39.3,32-71.2,71.2-71.2h181.9     c39.3,0,71.2,32,71.2,71.2v284.2C426.4,466.3,394.5,498.3,355.2,498.3z M173.3,92c-28.1,0-50.9,22.8-50.9,50.9v284.2     c0,28.1,22.8,50.9,50.9,50.9h181.9c28.1,0,50.9-22.8,50.9-50.9V142.9c0-28.1-22.8-50.9-50.9-50.9H173.3z" id="XMLID_571_"/><path class="st2" d="M355.2,498.3H173.3c-39.3,0-71.2-32-71.2-71.2V194.1c0-39.3,32-71.2,71.2-71.2h181.9     c39.3,0,71.2,32,71.2,71.2v232.9C426.4,466.3,394.5,498.3,355.2,498.3z M173.3,143.2c-28.1,0-50.9,22.8-50.9,50.9v232.9     c0,28.1,22.8,50.9,50.9,50.9h181.9c28.1,0,50.9-22.8,50.9-50.9V194.1c0-28.1-22.8-50.9-50.9-50.9H173.3z" id="XMLID_567_"/><g id="XMLID_189_"><path class="st0" d="M331.4,449.1H197c-24.7,0-44.9-20.2-44.9-44.9v-71.8c0-24.7,20.2-44.9,44.9-44.9h134.4      c24.7,0,44.9,20.2,44.9,44.9v71.8C376.3,428.9,356.1,449.1,331.4,449.1z" id="XMLID_115_"/><path class="st3" d="M312.8,449.1H174.9c-23.7,0-43.1-19.4-43.1-43.1v-75.4c0-23.7,19.4-43.1,43.1-43.1h137.9      c23.7,0,43.1,19.4,43.1,43.1V406C355.9,429.7,336.5,449.1,312.8,449.1z" id="XMLID_562_"/><path class="st2" d="M337.5,459.2H191c-27,0-49-22-49-49v-83.9c0-27,22-49,49-49h146.5c27,0,49,22,49,49v83.9      C386.5,437.3,364.5,459.2,337.5,459.2z M191,297.7c-15.8,0-28.6,12.8-28.6,28.6v83.9c0,15.8,12.8,28.6,28.6,28.6h146.5      c15.8,0,28.6-12.8,28.6-28.6v-83.9c0-15.8-12.8-28.6-28.6-28.6H191z" id="XMLID_563_"/></g><g id="XMLID_190_"><path class="st0" d="M341.7,248.5H186.8c-19,0-34.6-15.6-34.6-34.6v0c0-19,15.6-34.6,34.6-34.6h154.9      c19,0,34.6,15.6,34.6,34.6v0C376.3,232.9,360.7,248.5,341.7,248.5z" id="XMLID_558_"/><path class="st2" d="M343.2,258.6h-158c-23.9,0-43.3-19.4-43.3-43.3v-3.1c0-23.9,19.4-43.3,43.3-43.3h158      c23.9,0,43.3,19.4,43.3,43.3v3.1C386.5,239.2,367.1,258.6,343.2,258.6z M185.2,189.4c-12.6,0-22.9,10.3-22.9,22.9v3.1      c0,12.6,10.3,22.9,22.9,22.9h158c12.6,0,22.9-10.3,22.9-22.9v-3.1c0-12.6-10.3-22.9-22.9-22.9H185.2z" id="XMLID_559_"/></g><g id="XMLID_195_"><line class="st0" id="XMLID_556_" x1="156" x2="379" y1="409" y2="409"/><rect class="st2" height="18" id="XMLID_557_" width="223" x="156" y="397"/></g></g></g></svg>